<mxfile host="app.diagrams.net" agent="Mozilla/5.0 (Windows NT 10.0; Win64; x64; rv:137.0) Gecko/20100101 Firefox/137.0" version="26.2.7">
  <diagram name="Strona-1" id="-5Uy0jsvn5ZtMZ0EfrQA">
    <mxGraphModel dx="1961" dy="924" grid="1" gridSize="10" guides="1" tooltips="1" connect="1" arrows="1" fold="1" page="1" pageScale="1" pageWidth="1654" pageHeight="2336" math="0" shadow="0">
      <root>
        <mxCell id="0" />
        <mxCell id="1" parent="0" />
        <mxCell id="pt01QR4zdq_Ymdabbm9k-54" style="edgeStyle=none;rounded=0;orthogonalLoop=1;jettySize=auto;html=1;exitX=0.5;exitY=1;exitDx=0;exitDy=0;entryX=0.5;entryY=0;entryDx=0;entryDy=0;" edge="1" parent="1" source="pt01QR4zdq_Ymdabbm9k-28" target="pt01QR4zdq_Ymdabbm9k-53">
          <mxGeometry relative="1" as="geometry" />
        </mxCell>
        <mxCell id="pt01QR4zdq_Ymdabbm9k-28" value="Uruchomienie programu z parametrami (min i max promień)" style="rounded=0;whiteSpace=wrap;html=1;" vertex="1" parent="1">
          <mxGeometry x="670" y="60" width="180" height="70" as="geometry" />
        </mxCell>
        <mxCell id="pt01QR4zdq_Ymdabbm9k-72" style="edgeStyle=elbowEdgeStyle;rounded=0;orthogonalLoop=1;jettySize=auto;elbow=vertical;html=1;exitX=0.5;exitY=1;exitDx=0;exitDy=0;entryX=0.5;entryY=0;entryDx=0;entryDy=0;" edge="1" parent="1" source="pt01QR4zdq_Ymdabbm9k-29" target="pt01QR4zdq_Ymdabbm9k-71">
          <mxGeometry relative="1" as="geometry" />
        </mxCell>
        <mxCell id="pt01QR4zdq_Ymdabbm9k-29" value="Zmiana obrazu kolorowego (o ile takim jest) do obrazu w przestrzeni monochromatycznej" style="rounded=0;whiteSpace=wrap;html=1;" vertex="1" parent="1">
          <mxGeometry x="670" y="360" width="180" height="70" as="geometry" />
        </mxCell>
        <mxCell id="pt01QR4zdq_Ymdabbm9k-55" style="edgeStyle=none;rounded=0;orthogonalLoop=1;jettySize=auto;html=1;exitX=0.5;exitY=1;exitDx=0;exitDy=0;entryX=0.5;entryY=0;entryDx=0;entryDy=0;" edge="1" parent="1" source="pt01QR4zdq_Ymdabbm9k-53" target="pt01QR4zdq_Ymdabbm9k-29">
          <mxGeometry relative="1" as="geometry" />
        </mxCell>
        <mxCell id="pt01QR4zdq_Ymdabbm9k-70" value="tak" style="edgeLabel;html=1;align=center;verticalAlign=middle;resizable=0;points=[];" vertex="1" connectable="0" parent="pt01QR4zdq_Ymdabbm9k-55">
          <mxGeometry x="0.16" y="3" relative="1" as="geometry">
            <mxPoint x="-3" y="-9" as="offset" />
          </mxGeometry>
        </mxCell>
        <mxCell id="pt01QR4zdq_Ymdabbm9k-67" style="edgeStyle=elbowEdgeStyle;rounded=0;orthogonalLoop=1;jettySize=auto;elbow=vertical;html=1;exitX=1;exitY=0.5;exitDx=0;exitDy=0;entryX=0.5;entryY=0;entryDx=0;entryDy=0;" edge="1" parent="1" source="pt01QR4zdq_Ymdabbm9k-53" target="pt01QR4zdq_Ymdabbm9k-63">
          <mxGeometry relative="1" as="geometry">
            <Array as="points">
              <mxPoint x="1040" y="245" />
            </Array>
          </mxGeometry>
        </mxCell>
        <mxCell id="pt01QR4zdq_Ymdabbm9k-68" value="nie" style="edgeLabel;html=1;align=center;verticalAlign=middle;resizable=0;points=[];" vertex="1" connectable="0" parent="pt01QR4zdq_Ymdabbm9k-67">
          <mxGeometry x="-0.89" y="-6" relative="1" as="geometry">
            <mxPoint x="-8" y="-6" as="offset" />
          </mxGeometry>
        </mxCell>
        <mxCell id="pt01QR4zdq_Ymdabbm9k-53" value="&lt;div&gt;Obraz i parametry&amp;nbsp;&lt;/div&gt;&lt;div&gt;wczytanie poprawnie&lt;/div&gt;" style="rhombus;whiteSpace=wrap;html=1;" vertex="1" parent="1">
          <mxGeometry x="682.19" y="180" width="155.62" height="130" as="geometry" />
        </mxCell>
        <mxCell id="pt01QR4zdq_Ymdabbm9k-60" value="Koniec programu" style="whiteSpace=wrap;html=1;" vertex="1" parent="1">
          <mxGeometry x="700" y="1610" width="120" height="60" as="geometry" />
        </mxCell>
        <mxCell id="pt01QR4zdq_Ymdabbm9k-66" style="edgeStyle=elbowEdgeStyle;rounded=0;orthogonalLoop=1;jettySize=auto;html=1;exitX=0.5;exitY=1;exitDx=0;exitDy=0;entryX=1;entryY=0.5;entryDx=0;entryDy=0;elbow=vertical;" edge="1" parent="1" source="pt01QR4zdq_Ymdabbm9k-63" target="pt01QR4zdq_Ymdabbm9k-60">
          <mxGeometry relative="1" as="geometry">
            <Array as="points">
              <mxPoint x="1020" y="1640" />
              <mxPoint x="1060" y="1130" />
            </Array>
          </mxGeometry>
        </mxCell>
        <mxCell id="pt01QR4zdq_Ymdabbm9k-63" value="Output: Błąd + powód (zły obraz/parametry)" style="rounded=0;whiteSpace=wrap;html=1;" vertex="1" parent="1">
          <mxGeometry x="1160" y="560" width="180" height="60" as="geometry" />
        </mxCell>
        <mxCell id="pt01QR4zdq_Ymdabbm9k-74" style="edgeStyle=elbowEdgeStyle;rounded=0;orthogonalLoop=1;jettySize=auto;elbow=vertical;html=1;exitX=0.5;exitY=1;exitDx=0;exitDy=0;entryX=0.5;entryY=0;entryDx=0;entryDy=0;" edge="1" parent="1" source="pt01QR4zdq_Ymdabbm9k-71" target="pt01QR4zdq_Ymdabbm9k-73">
          <mxGeometry relative="1" as="geometry" />
        </mxCell>
        <mxCell id="pt01QR4zdq_Ymdabbm9k-71" value="&lt;div&gt;Detekcja krawędzi filtrami&amp;nbsp;&lt;/div&gt;&lt;div&gt;Sobela&lt;/div&gt;" style="rounded=0;whiteSpace=wrap;html=1;" vertex="1" parent="1">
          <mxGeometry x="670" y="500" width="180" height="70" as="geometry" />
        </mxCell>
        <mxCell id="pt01QR4zdq_Ymdabbm9k-76" style="edgeStyle=elbowEdgeStyle;rounded=0;orthogonalLoop=1;jettySize=auto;elbow=vertical;html=1;exitX=0.5;exitY=1;exitDx=0;exitDy=0;entryX=0.5;entryY=0;entryDx=0;entryDy=0;" edge="1" parent="1" source="pt01QR4zdq_Ymdabbm9k-73" target="pt01QR4zdq_Ymdabbm9k-75">
          <mxGeometry relative="1" as="geometry" />
        </mxCell>
        <mxCell id="pt01QR4zdq_Ymdabbm9k-73" value="Inicjalizacja tablicy trójwymiarowej o rozmiarze A[y,x,r] (y - wysokość, x - szerokość, r - promień od rmin do rmax)" style="rounded=0;whiteSpace=wrap;html=1;" vertex="1" parent="1">
          <mxGeometry x="670" y="610" width="180" height="90" as="geometry" />
        </mxCell>
        <mxCell id="pt01QR4zdq_Ymdabbm9k-78" value="" style="edgeStyle=elbowEdgeStyle;rounded=0;orthogonalLoop=1;jettySize=auto;elbow=vertical;html=1;" edge="1" parent="1" source="pt01QR4zdq_Ymdabbm9k-75" target="pt01QR4zdq_Ymdabbm9k-77">
          <mxGeometry relative="1" as="geometry" />
        </mxCell>
        <mxCell id="pt01QR4zdq_Ymdabbm9k-75" value="Dla każdego pixela" style="rounded=0;whiteSpace=wrap;html=1;" vertex="1" parent="1">
          <mxGeometry x="670" y="740" width="180" height="80" as="geometry" />
        </mxCell>
        <mxCell id="pt01QR4zdq_Ymdabbm9k-81" style="edgeStyle=elbowEdgeStyle;rounded=0;orthogonalLoop=1;jettySize=auto;elbow=vertical;html=1;exitX=0.5;exitY=1;exitDx=0;exitDy=0;entryX=0.5;entryY=0;entryDx=0;entryDy=0;" edge="1" parent="1" source="pt01QR4zdq_Ymdabbm9k-77" target="pt01QR4zdq_Ymdabbm9k-80">
          <mxGeometry relative="1" as="geometry" />
        </mxCell>
        <mxCell id="pt01QR4zdq_Ymdabbm9k-77" value="Dla każdego r wyznacz zbiór punktów reprezentujący okrąg w punkcie (x,y)" style="rounded=0;whiteSpace=wrap;html=1;" vertex="1" parent="1">
          <mxGeometry x="670" y="880" width="180" height="70" as="geometry" />
        </mxCell>
        <mxCell id="pt01QR4zdq_Ymdabbm9k-85" value="" style="edgeStyle=elbowEdgeStyle;rounded=0;orthogonalLoop=1;jettySize=auto;elbow=horizontal;html=1;" edge="1" parent="1" source="pt01QR4zdq_Ymdabbm9k-80" target="pt01QR4zdq_Ymdabbm9k-84">
          <mxGeometry relative="1" as="geometry" />
        </mxCell>
        <mxCell id="pt01QR4zdq_Ymdabbm9k-87" value="nie" style="edgeLabel;html=1;align=center;verticalAlign=middle;resizable=0;points=[];" vertex="1" connectable="0" parent="pt01QR4zdq_Ymdabbm9k-85">
          <mxGeometry x="-0.3087" y="4" relative="1" as="geometry">
            <mxPoint as="offset" />
          </mxGeometry>
        </mxCell>
        <mxCell id="pt01QR4zdq_Ymdabbm9k-89" value="" style="edgeStyle=elbowEdgeStyle;rounded=0;orthogonalLoop=1;jettySize=auto;elbow=horizontal;html=1;" edge="1" parent="1" source="pt01QR4zdq_Ymdabbm9k-80" target="pt01QR4zdq_Ymdabbm9k-88">
          <mxGeometry relative="1" as="geometry" />
        </mxCell>
        <mxCell id="pt01QR4zdq_Ymdabbm9k-90" value="tak" style="edgeLabel;html=1;align=center;verticalAlign=middle;resizable=0;points=[];" vertex="1" connectable="0" parent="pt01QR4zdq_Ymdabbm9k-89">
          <mxGeometry x="-0.4024" y="3" relative="1" as="geometry">
            <mxPoint as="offset" />
          </mxGeometry>
        </mxCell>
        <mxCell id="pt01QR4zdq_Ymdabbm9k-80" value="Czy dla x,y,r punkt xc, yc będący częścią okręgu w przestrzeni Hougha mieści się w zakresie tablicy A?" style="rhombus;whiteSpace=wrap;html=1;" vertex="1" parent="1">
          <mxGeometry x="672.5" y="990" width="175" height="140" as="geometry" />
        </mxCell>
        <mxCell id="pt01QR4zdq_Ymdabbm9k-86" style="edgeStyle=elbowEdgeStyle;rounded=0;orthogonalLoop=1;jettySize=auto;elbow=vertical;html=1;exitX=0.5;exitY=0;exitDx=0;exitDy=0;" edge="1" parent="1" source="pt01QR4zdq_Ymdabbm9k-84">
          <mxGeometry relative="1" as="geometry">
            <mxPoint x="760" y="960" as="targetPoint" />
            <Array as="points">
              <mxPoint x="850" y="960" />
            </Array>
          </mxGeometry>
        </mxCell>
        <mxCell id="pt01QR4zdq_Ymdabbm9k-84" value="Weź kolejny punkt xc, yc" style="rounded=0;whiteSpace=wrap;html=1;" vertex="1" parent="1">
          <mxGeometry x="890" y="1025" width="90" height="70" as="geometry" />
        </mxCell>
        <mxCell id="pt01QR4zdq_Ymdabbm9k-93" value="" style="edgeStyle=elbowEdgeStyle;rounded=0;orthogonalLoop=1;jettySize=auto;elbow=vertical;html=1;" edge="1" parent="1" source="pt01QR4zdq_Ymdabbm9k-88" target="pt01QR4zdq_Ymdabbm9k-92">
          <mxGeometry relative="1" as="geometry" />
        </mxCell>
        <mxCell id="pt01QR4zdq_Ymdabbm9k-88" value="Dodaj do tablicy A[yc,xc,r]&amp;nbsp; liczbę 1" style="rounded=0;whiteSpace=wrap;html=1;" vertex="1" parent="1">
          <mxGeometry x="700" y="1160" width="120" height="60" as="geometry" />
        </mxCell>
        <mxCell id="pt01QR4zdq_Ymdabbm9k-95" value="" style="edgeStyle=elbowEdgeStyle;rounded=0;orthogonalLoop=1;jettySize=auto;elbow=vertical;html=1;" edge="1" parent="1" source="pt01QR4zdq_Ymdabbm9k-92" target="pt01QR4zdq_Ymdabbm9k-94">
          <mxGeometry relative="1" as="geometry" />
        </mxCell>
        <mxCell id="pt01QR4zdq_Ymdabbm9k-92" value="Wyznacz maksima tablicy A" style="rounded=0;whiteSpace=wrap;html=1;" vertex="1" parent="1">
          <mxGeometry x="700" y="1290" width="120" height="60" as="geometry" />
        </mxCell>
        <mxCell id="pt01QR4zdq_Ymdabbm9k-97" value="" style="edgeStyle=elbowEdgeStyle;rounded=0;orthogonalLoop=1;jettySize=auto;elbow=vertical;html=1;entryX=0.5;entryY=0;entryDx=0;entryDy=0;" edge="1" parent="1" source="pt01QR4zdq_Ymdabbm9k-94" target="pt01QR4zdq_Ymdabbm9k-60">
          <mxGeometry relative="1" as="geometry">
            <mxPoint x="760" y="1540" as="targetPoint" />
          </mxGeometry>
        </mxCell>
        <mxCell id="pt01QR4zdq_Ymdabbm9k-94" value="Narysuj okręgi dla punktów w tablicy A" style="rounded=0;whiteSpace=wrap;html=1;" vertex="1" parent="1">
          <mxGeometry x="700" y="1400" width="120" height="60" as="geometry" />
        </mxCell>
      </root>
    </mxGraphModel>
  </diagram>
</mxfile>
